<?xml version="1.0" standalone="no"?>
<!DOCTYPE svg PUBLIC "-//W3C//DTD SVG 20010904//EN"
 "http://www.w3.org/TR/2001/REC-SVG-20010904/DTD/svg10.dtd">
<svg version="1.0" xmlns="http://www.w3.org/2000/svg"
 width="700.000000pt" height="700.000000pt" viewBox="0 0 700.000000 700.000000"
 preserveAspectRatio="xMidYMid meet">
<metadata>
Created by potrace 1.14, written by Peter Selinger 2001-2017
</metadata>
<g transform="translate(0.000000,700.000000) scale(0.100000,-0.100000)"
fill="#000000" stroke="none">
<path d="M4017 5383 c-13 -21 -67 -113 -121 -206 l-99 -167 -33 25 c-19 14
-49 36 -66 49 -55 40 -172 94 -265 123 -79 24 -104 26 -248 26 -132 0 -173 -3
-237 -21 -331 -91 -591 -346 -680 -667 -22 -79 -22 -93 -28 -900 -3 -451 -2
-863 2 -915 7 -82 30 -188 52 -240 4 -9 -56 -120 -159 -294 -90 -154 -162
-283 -160 -286 5 -8 328 -190 337 -190 3 0 56 88 119 195 63 107 117 195 121
195 4 0 38 -23 75 -52 79 -60 219 -128 318 -154 100 -27 370 -27 470 0 317 85
569 334 672 663 l28 88 3 825 c3 879 0 962 -43 1099 -19 58 -22 79 -13 95 6
12 82 141 169 288 l158 268 -169 95 c-92 52 -171 95 -174 95 -3 0 -16 -17 -29
-37z m-692 -737 c60 -27 116 -74 145 -121 l21 -34 -324 -548 c-178 -301 -329
-557 -335 -568 -9 -15 -11 99 -9 505 2 522 2 525 25 574 48 104 143 186 245
212 69 18 169 9 232 -20z m199 -1924 c-28 -106 -116 -208 -217 -252 -142 -61
-324 -7 -414 124 -30 44 -32 51 -20 70 8 12 160 268 338 571 l324 549 3 -499
c3 -442 1 -507 -14 -563z"/>
<path d="M4462 2552 c-9 -7 -12 -70 -10 -283 l3 -274 288 -3 287 -2 -2 282 -3
283 -275 2 c-151 2 -281 -1 -288 -5z"/>
</g>
</svg>
