<?xml version="1.0" standalone="no"?>
<!DOCTYPE svg PUBLIC "-//W3C//DTD SVG 20010904//EN"
 "http://www.w3.org/TR/2001/REC-SVG-20010904/DTD/svg10.dtd">
<svg version="1.0" xmlns="http://www.w3.org/2000/svg"
 width="700.000000pt" height="700.000000pt" viewBox="0 0 700.000000 700.000000"
 preserveAspectRatio="xMidYMid meet">
<metadata>
Created by potrace 1.14, written by Peter Selinger 2001-2017
</metadata>
<g transform="translate(0.000000,700.000000) scale(0.100000,-0.100000)"
fill="#000000" stroke="none">
<path d="M3782 4685 c-46 -80 -86 -145 -89 -145 -3 0 -26 15 -52 34 -120 88
-224 121 -381 120 -99 0 -126 -4 -195 -28 -220 -75 -378 -243 -442 -466 -17
-60 -18 -114 -18 -705 0 -598 1 -645 19 -711 l19 -71 -114 -198 c-108 -188
-112 -198 -94 -211 23 -17 211 -124 218 -124 5 0 35 50 126 207 l42 73 52 -39
c198 -148 455 -172 676 -64 112 55 242 187 298 303 73 149 73 154 73 815 0
582 -4 678 -36 767 l-13 38 119 205 118 205 -71 41 c-40 23 -93 55 -120 70
-26 16 -48 29 -50 29 -1 0 -40 -65 -85 -145z m-417 -414 c40 -18 119 -95 113
-110 -2 -4 -106 -187 -233 -406 l-230 -399 -3 354 c-3 397 1 425 62 497 50 58
106 83 186 83 41 0 80 -7 105 -19z m134 -1386 c-45 -156 -221 -232 -356 -155
-30 17 -64 48 -79 69 l-25 39 233 404 233 404 3 -361 c2 -251 -1 -372 -9 -400z"/>
<path d="M4758 4690 c-240 -43 -433 -209 -516 -442 -26 -73 -26 -73 -34 -533
-11 -565 -6 -837 16 -920 9 -33 35 -98 58 -145 57 -117 179 -241 290 -294 183
-88 397 -88 578 0 113 55 232 178 294 305 58 117 76 200 76 357 l0 122 -202
-2 -203 -3 -5 -125 c-6 -140 -20 -179 -87 -246 -48 -48 -89 -64 -166 -64 -119
0 -214 84 -237 212 -7 37 -10 256 -8 620 3 548 4 564 24 609 51 110 124 154
242 147 79 -4 131 -31 177 -93 43 -56 54 -100 55 -221 0 -93 3 -113 16 -118
25 -9 367 -7 383 3 18 12 9 261 -13 341 -61 222 -243 411 -456 474 -66 20
-216 28 -282 16z"/>
<path d="M1020 3489 l0 -1171 368 4 c349 4 370 5 437 27 125 41 203 89 296
181 71 71 94 101 133 180 61 125 79 213 73 355 -8 159 -48 270 -145 397 l-49
64 44 48 c183 202 220 468 101 716 -57 120 -177 239 -298 299 -135 66 -173 71
-592 71 l-368 0 0 -1171z m760 750 c206 -93 213 -382 12 -481 -43 -21 -59 -23
-207 -23 l-160 0 -3 263 -2 262 157 0 c137 0 164 -3 203 -21z m-25 -941 c108
-56 167 -151 167 -268 0 -115 -62 -214 -166 -268 -46 -24 -64 -26 -193 -30
l-143 -4 0 294 c0 162 3 298 8 302 4 5 68 6 142 4 122 -4 140 -7 185 -30z"/>
<path d="M5634 2717 c-2 -7 -3 -98 -2 -202 l3 -190 200 0 200 0 3 203 2 202
-200 0 c-154 0 -202 -3 -206 -13z"/>
</g>
</svg>
